HIERARCHY
ROOT hip
{
  OFFSET 0 0 0
  CHANNELS 6 Xposition Yposition Zposition Zrotation Yrotation Xrotation
  JOINT abdomen
  {
    OFFSET 0 20.6881 -0.73152
    CHANNELS 3 Zrotation Xrotation Yrotation
    JOINT chest
    {
      OFFSET 0 11.7043 -0.48768
      CHANNELS 3 Zrotation Xrotation Yrotation
      JOINT neck
      {
        OFFSET 0 22.1894 -2.19456
        CHANNELS 3 Zrotation Xrotation Yrotation
        JOINT head
        {
          OFFSET -0.24384 7.07133 1.2192
          CHANNELS 3 Zrotation Xrotation Yrotation
          JOINT leftEye
          {
            OFFSET 4.14528 8.04674 8.04672
            CHANNELS 3 Zrotation Xrotation Yrotation
            End Site
            {
              OFFSET 1 0 0
            }
          }
          JOINT rightEye
          {
            OFFSET -3.6576 8.04674 8.04672
            CHANNELS 3 Zrotation Xrotation Yrotation
            End Site
            {
              OFFSET 1 0 0
            }
          }
        }
      }
      JOINT rCollar
      {
        OFFSET -2.68224 19.2634 -4.8768
        CHANNELS 3 Zrotation Xrotation Yrotation
        JOINT rShldr
        {
          OFFSET -8.77824 -1.95073 1.46304
          CHANNELS 3 Zrotation Xrotation Yrotation
          JOINT rForeArm
          {
            OFFSET -28.1742 -1.7115 0.48768
            CHANNELS 3 Zrotation Xrotation Yrotation
            JOINT rHand
            {
              OFFSET -22.5879 0.773209 7.07136
              CHANNELS 3 Zrotation Xrotation Yrotation
              JOINT rThumb1
              {
                OFFSET -1.2192 -0.487915 3.41376
                CHANNELS 3 Zrotation Xrotation Yrotation
                JOINT rThumb2
                {
                  OFFSET -3.37035 -0.52449 3.41376
                  CHANNELS 3 Zrotation Xrotation Yrotation
                  End Site
                  {
                    OFFSET -1.78271 -1.18214 1.43049
                  }
                }
              }
              JOINT rIndex1
              {
                OFFSET -7.75947 0.938293 5.60832
                CHANNELS 3 Zrotation Xrotation Yrotation
                JOINT rIndex2
                {
                  OFFSET -2.54057 -0.884171 1.56538
                  CHANNELS 3 Zrotation Xrotation Yrotation
                  End Site
                  {
                    OFFSET -1.62519 -0.234802 1.16502
                  }
                }
              }
              JOINT rMid1
              {
                OFFSET -8.24714 1.18213 3.41376
                CHANNELS 3 Zrotation Xrotation Yrotation
                JOINT rMid2
                {
                  OFFSET -3.10165 -0.590103 1.0647
                  CHANNELS 3 Zrotation Xrotation Yrotation
                  End Site
                  {
                    OFFSET -2.48547 -0.328903 0.83742
                  }
                }
              }
              JOINT rRing1
              {
                OFFSET -8.82822 0.546677 1.51678
                CHANNELS 3 Zrotation Xrotation Yrotation
                JOINT rRing2
                {
                  OFFSET -2.60934 -0.819778 -0.0198488
                  CHANNELS 3 Zrotation Xrotation Yrotation
                  End Site
                  {
                    OFFSET -2.33842 -0.294052 0.168128
                  }
                }
              }
              JOINT rPinky1
              {
                OFFSET -8.27202 -0.0477905 -0.4584
                CHANNELS 3 Zrotation Xrotation Yrotation
                JOINT rPinky2
                {
                  OFFSET -1.82734 -0.647385 -0.700984
                  CHANNELS 3 Zrotation Xrotation Yrotation
                  End Site
                  {
                    OFFSET -1.69225 -0.51767 -0.607171
                  }
                }
              }
            }
          }
        }
      }
      JOINT lCollar
      {
        OFFSET 2.68224 19.2634 -4.8768
        CHANNELS 3 Zrotation Xrotation Yrotation
        JOINT lShldr
        {
          OFFSET 8.77824 -1.95073 1.46304
          CHANNELS 3 Zrotation Xrotation Yrotation
          JOINT lForeArm
          {
            OFFSET 28.1742 -1.7115 0.48768
            CHANNELS 3 Zrotation Xrotation Yrotation
            JOINT lHand
            {
              OFFSET 22.5879 0.773209 7.07136
              CHANNELS 3 Zrotation Xrotation Yrotation
              JOINT lThumb1
              {
                OFFSET 1.2192 -0.487915 3.41376
                CHANNELS 3 Zrotation Xrotation Yrotation
                JOINT lThumb2
                {
                  OFFSET 3.37035 -0.52449 3.41376
                  CHANNELS 3 Zrotation Xrotation Yrotation
                  End Site
                  {
                    OFFSET 1.78271 -1.18214 1.43049
                  }
                }
              }
              JOINT lIndex1
              {
                OFFSET 7.75947 0.938293 5.60832
                CHANNELS 3 Zrotation Xrotation Yrotation
                JOINT lIndex2
                {
                  OFFSET 2.54057 -0.884171 1.56538
                  CHANNELS 3 Zrotation Xrotation Yrotation
                  End Site
                  {
                    OFFSET 1.62519 -0.234802 1.16502
                  }
                }
              }
              JOINT lMid1
              {
                OFFSET 8.24714 1.18213 3.41376
                CHANNELS 3 Zrotation Xrotation Yrotation
                JOINT lMid2
                {
                  OFFSET 3.10165 -0.590103 1.0647
                  CHANNELS 3 Zrotation Xrotation Yrotation
                  End Site
                  {
                    OFFSET 2.48547 -0.328903 0.83742
                  }
                }
              }
              JOINT lRing1
              {
                OFFSET 8.82822 0.546677 1.51678
                CHANNELS 3 Zrotation Xrotation Yrotation
                JOINT lRing2
                {
                  OFFSET 2.60934 -0.819778 -0.0198488
                  CHANNELS 3 Zrotation Xrotation Yrotation
                  End Site
                  {
                    OFFSET 2.33842 -0.294052 0.168128
                  }
                }
              }
              JOINT lPinky1
              {
                OFFSET 8.27202 -0.0477905 -0.4584
                CHANNELS 3 Zrotation Xrotation Yrotation
                JOINT lPinky2
                {
                  OFFSET 1.82734 -0.647385 -0.700984
                  CHANNELS 3 Zrotation Xrotation Yrotation
                  End Site
                  {
                    OFFSET 1.69225 -0.51767 -0.607171
                  }
                }
              }
            }
          }
        }
      }
    }
  }
  JOINT rButtock
  {
    OFFSET -8.77824 4.35084 1.2192
    CHANNELS 3 Zrotation Xrotation Yrotation
    JOINT rThigh
    {
      OFFSET 0 -1.70687 -2.19456
      CHANNELS 3 Zrotation Xrotation Yrotation
      JOINT rShin
      {
        OFFSET 0 -36.8199 0.73152
        CHANNELS 3 Zrotation Xrotation Yrotation
        JOINT rFoot
        {
          OFFSET 0.73152 -45.1104 -5.12064
          CHANNELS 3 Zrotation Xrotation Yrotation
          End Site
          {
            OFFSET -1.1221 -3.69964 12.103
          }
        }
      }
    }
  }
  JOINT lButtock
  {
    OFFSET 8.77824 4.35084 1.2192
    CHANNELS 3 Zrotation Xrotation Yrotation
    JOINT lThigh
    {
      OFFSET 0 -1.70687 -2.19456
      CHANNELS 3 Zrotation Xrotation Yrotation
      JOINT lShin
      {
        OFFSET 0 -36.8199 0.73152
        CHANNELS 3 Zrotation Xrotation Yrotation
        JOINT lFoot
        {
          OFFSET -0.73152 -45.1104 -5.12064
          CHANNELS 3 Zrotation Xrotation Yrotation
          End Site
          {
            OFFSET 1.1221 -3.69964 12.103
          }
        }
      }
    }
  }
}
MOTION
Frames:	8
Frame Time:	0.00833333
84.1615 88.5289 -6.67789 131.256 68.7408 134.457 -19.1031 12.2613 -13.6275 10.402 0.201368 -3.89048 3.25085 -9.59876 2.51737 -3.16896 6.79664 4.04267 -0.0 0.0 0.0 -0.0 0.0 0.0 -4.4658e-13 1.02287e-11 2.23089e-15 88.6004 26.7423 -60.6054 -27.3273 -27.4997 63.2686 -0.478011 -19.2624 -2.81518 1.94332e-09 1.2429e-09 -3.2767e-10 3.35605e-09 2.13232e-09 -5.42931e-10 1.94332e-09 1.2429e-09 -3.27683e-10 7.73091 5.47488 0.417314 1.94331e-09 1.2429e-09 -3.27676e-10 2.90554 0.965183 0.102902 1.94332e-09 1.2429e-09 -3.27669e-10 10.2786 0.731801 0.0259123 1.94332e-09 1.2429e-09 -3.2766e-10 2.22167 -0.733487 -0.20892 -4.46687e-13 1.02287e-11 2.08995e-15 -50.0099 58.0528 -17.1494 26.4984 -45.2108 -93.9361 0.0156943 -3.60311 0.507032 8.97985e-10 4.03372e-09 -3.20513e-09 1.55486e-09 6.97534e-09 -5.54013e-09 8.97987e-10 4.03373e-09 -3.20511e-09 -7.73091 5.47488 -0.417314 8.9799e-10 4.03372e-09 -3.20512e-09 -2.90554 0.965183 -0.102902 8.97979e-10 4.03373e-09 -3.20513e-09 -10.2786 0.731801 -0.0259123 8.97991e-10 4.03373e-09 -3.20513e-09 -2.22167 -0.733487 0.20892 -2.03217e-16 0.0 -3.88251e-19 -28.2302 -34.3949 -13.4204 -0.190695 16.1933 -1.25513 -2.64201 -16.4991 -7.70603 2.03217e-16 0.0 3.88251e-19 -7.626 20.485 -8.3726 0.985763 54.8416 -0.380269 -0.844871 23.2282 5.56159
87.721 87.8748 -6.79003 130.923 68.7097 133.348 -19.0652 12.7625 -12.9024 10.2671 -0.0800956 -3.6393 3.11058 -9.26561 2.29232 -3.03184 6.41479 3.6547 -0.0 0.0 0.0 -0.0 0.0 0.0 -4.8493e-13 1.21354e-11 -3.17062e-14 87.8415 26.7252 -59.0058 -27.3197 -27.471 63.223 -0.477321 -19.253 -2.81363 2.66052e-09 2.26801e-09 -1.03874e-09 4.60429e-09 3.89853e-09 -1.76199e-09 2.66052e-09 2.26802e-09 -1.03875e-09 7.73091 5.47488 0.417314 2.66051e-09 2.26802e-09 -1.03875e-09 2.90554 0.965183 0.102902 2.66052e-09 2.26802e-09 -1.03874e-09 10.2786 0.731801 0.0259123 2.66052e-09 2.26802e-09 -1.03873e-09 2.22167 -0.733487 -0.20892 -4.85071e-13 1.21354e-11 -3.18552e-14 -52.7855 59.2122 -14.0241 26.6299 -44.9391 -93.3361 0.00996787 -2.84937 0.400787 1.18613e-09 6.02123e-09 -4.54463e-09 2.05726e-09 1.04144e-08 -7.85436e-09 1.18613e-09 6.02123e-09 -4.54462e-09 -7.73091 5.47488 -0.417314 1.18614e-09 6.02123e-09 -4.54463e-09 -2.90554 0.965183 -0.102902 1.18613e-09 6.02123e-09 -4.54463e-09 -10.2786 0.731801 -0.0259123 1.18614e-09 6.02123e-09 -4.54464e-09 -2.22167 -0.733487 0.20892 -2.03217e-16 0.0 -3.88251e-19 -28.1137 -33.5867 -13.1675 -0.199001 17.4204 -1.32058 -2.58391 -15.7481 -7.81205 2.03217e-16 0.0 3.88251e-19 -7.9454 19.8054 -8.34407 1.23888 59.254 -0.701525 -0.537464 23.2131 4.41553
91.2185 87.1984 -6.96046 130.549 68.7456 132.147 -19.6466 13.3315 -12.0856 10.3254 -0.475139 -3.38298 2.92411 -9.05729 2.13819 -2.97888 6.25035 3.43543 -0.0 0.0 0.0 -0.0 0.0 0.0 -3.98896e-13 1.22207e-11 -8.73045e-14 86.8931 26.7985 -57.3441 -27.3156 -27.4554 63.1983 -0.468878 -19.0922 -2.78823 2.44472e-09 2.09675e-09 -7.70557e-10 4.22905e-09 3.60328e-09 -1.30121e-09 2.44472e-09 2.09676e-09 -7.70567e-10 7.73091 5.47488 0.417314 2.44472e-09 2.09676e-09 -7.70567e-10 2.90554 0.965183 0.102902 2.44472e-09 2.09676e-09 -7.70559e-10 10.2786 0.731801 0.0259123 2.44472e-09 2.09676e-09 -7.70548e-10 2.22167 -0.733487 -0.20892 -3.99056e-13 1.22207e-11 -8.7475e-14 -56.177 60.0884 -10.3999 26.7849 -44.5583 -92.5778 0.00509092 -2.08082 0.292602 7.96252e-10 5.19367e-09 -3.79517e-09 1.38362e-09 8.98345e-09 -6.55794e-09 7.96253e-10 5.19367e-09 -3.79516e-09 -7.73091 5.47488 -0.417314 7.96257e-10 5.19367e-09 -3.79517e-09 -2.90554 0.965183 -0.102902 7.96246e-10 5.19366e-09 -3.79517e-09 -10.2786 0.731801 -0.0259123 7.96259e-10 5.19367e-09 -3.79518e-09 -2.22167 -0.733487 0.20892 -2.03217e-16 0.0 -3.88251e-19 -28.9832 -32.5249 -14.0305 -0.188769 18.5438 -1.37052 -2.0691 -13.1564 -7.07307 2.03217e-16 0.0 3.88251e-19 -8.90833 18.948 -8.15005 1.83743 63.7732 -1.11504 -0.192764 20.5925 4.92314
94.6363 86.498 -7.17771 129.304 68.7804 130.192 -20.6639 13.9927 -11.167 10.5113 -0.977723 -3.11076 2.7035 -8.92552 2.02599 -2.9817 6.2151 3.31867 -0.0 0.0 0.0 -0.0 0.0 0.0 -2.31429e-13 1.11832e-11 -1.57133e-13 85.8213 26.9522 -55.586 -27.3122 -27.4426 63.178 -0.454085 -18.8025 -2.74266 1.65969e-09 1.17394e-09 1.13136e-10 2.86312e-09 2.01263e-09 2.15799e-10 1.65969e-09 1.17394e-09 1.13129e-10 7.73091 5.47488 0.417314 1.65969e-09 1.17394e-09 1.13125e-10 2.90554 0.965183 0.102902 1.65969e-09 1.17394e-09 1.13133e-10 10.2786 0.731801 0.0259123 1.65969e-09 1.17394e-09 1.13144e-10 2.22167 -0.733487 -0.20892 -2.31603e-13 1.11832e-11 -1.57335e-13 -60.0999 60.7066 -6.33646 26.9567 -44.0617 -91.6631 0.00133476 -1.30666 0.183692 -1.81007e-11 2.61894e-09 -1.74309e-09 -2.62249e-11 4.52979e-09 -3.00987e-09 -1.81051e-11 2.61894e-09 -1.74308e-09 -7.73091 5.47488 -0.417314 -1.80984e-11 2.61894e-09 -1.74309e-09 -2.90554 0.965183 -0.102902 -1.81085e-11 2.61893e-09 -1.74309e-09 -10.2786 0.731801 -0.0259123 -1.80919e-11 2.61893e-09 -1.7431e-09 -2.22167 -0.733487 0.20892 -2.03217e-16 0.0 -3.88251e-19 -30.4389 -31.2835 -15.5958 -0.165103 19.7514 -1.40853 -1.3775 -9.21324 -5.79809 2.03217e-16 0.0 3.88251e-19 -10.3098 17.9671 -7.81915 2.77411 68.364 -1.70148 0.388431 16.2626 6.41099
97.9091 85.7867 -7.49494 126.838 68.461 127.305 -21.0356 14.648 -10.1521 10.5428 -1.50625 -2.78343 2.46266 -8.84958 1.91435 -2.97187 6.18405 3.20674 -0.0 0.0 0.0 -0.0 0.0 0.0 -5.61393e-14 9.47211e-12 -2.10652e-13 84.6872 27.1375 -53.6587 -27.3084 -27.4282 63.155 -0.43642 -18.4474 -2.68706 7.34953e-10 8.81899e-11 1.06665e-09 1.25499e-09 1.41583e-10 1.8517e-09 7.34958e-10 8.81906e-11 1.06664e-09 7.73091 5.47488 0.417314 7.34953e-10 8.81905e-11 1.06664e-09 2.90554 0.965183 0.102902 7.34961e-10 8.81919e-11 1.06664e-09 10.2786 0.731801 0.0259123 7.34951e-10 8.81928e-11 1.06665e-09 2.22167 -0.733487 -0.20892 -5.63179e-14 9.47211e-12 -2.10884e-13 -64.2271 61.0244 -2.19666 27.166 -43.4602 -90.5019 -0.000271765 -0.629515 0.0884767 -8.73589e-10 -2.88298e-10 5.40808e-10 -1.50801e-09 -4.99242e-10 9.38661e-10 -8.73599e-10 -2.88306e-10 5.40815e-10 -7.73091 5.47488 -0.417314 -8.73589e-10 -2.88307e-10 5.40802e-10 -2.90554 0.965183 -0.102902 -8.73599e-10 -2.88311e-10 5.40805e-10 -10.2786 0.731801 -0.0259123 -8.73579e-10 -2.88308e-10 5.40793e-10 -2.22167 -0.733487 0.20892 -2.03217e-16 0.0 -3.88251e-19 -31.0777 -30.5026 -16.9146 -0.17715 21.5078 -1.45698 -0.839198 -5.25827 -4.52237 2.03217e-16 0.0 3.88251e-19 -11.1679 16.9284 -7.17901 3.59966 72.6583 -2.49574 0.62938 15.1243 6.11327
101.175 84.9487 -7.5057 125.151 68.9556 125.146 -19.6735 15.1975 -9.04678 10.1374 -1.97907 -2.36158 2.21601 -8.8087 1.76199 -2.88261 6.032 3.00213 -0.0 0.0 0.0 -0.0 0.0 0.0 5.33616e-14 7.53669e-12 -2.17321e-13 83.5594 27.2918 -51.4905 -27.3029 -27.4077 63.1222 -0.418979 -18.0907 -2.6314 1.00041e-10 -5.71873e-10 1.54428e-09 1.53119e-10 -9.94858e-10 2.66918e-09 1.00046e-10 -5.71875e-10 1.54427e-09 7.73091 5.47488 0.417314 1.00043e-10 -5.71874e-10 1.54427e-09 2.90554 0.965183 0.102902 1.00051e-10 -5.71873e-10 1.54427e-09 10.2786 0.731801 0.0259123 1.00039e-10 -5.71872e-10 1.54428e-09 2.22167 -0.733487 -0.20892 5.31905e-14 7.53668e-12 -2.1757e-13 -68.1934 61.0409 1.61978 27.4263 -42.7537 -89.0154 2.83378e-05 -0.152006 0.0213631 -1.38687e-09 -2.1134e-09 1.98571e-09 -2.3975e-09 -3.65637e-09 3.43644e-09 -1.38689e-09 -2.11341e-09 1.98572e-09 -7.73091 5.47488 -0.417314 -1.38688e-09 -2.11341e-09 1.9857e-09 -2.90554 0.965183 -0.102902 -1.38688e-09 -2.11341e-09 1.98571e-09 -10.2786 0.731801 -0.0259123 -1.38686e-09 -2.11341e-09 1.98569e-09 -2.22167 -0.733487 0.20892 -2.03217e-16 0.0 -3.88251e-19 -29.6025 -30.8385 -17.0899 -0.268874 24.2772 -1.54193 -0.545691 -2.66058 -3.70781 2.03217e-16 0.0 3.88251e-19 -10.4885 15.8935 -6.05974 3.80421 76.2889 -3.47611 0.31275 22.0409 1.13959
104.363 83.6819 -6.68877 125.867 71.9426 125.026 -15.4563 15.5151 -7.82041 8.96653 -2.39034 -1.79192 1.90951 -8.76909 1.52258 -2.66306 5.731 2.63348 -0.0 0.0 0.0 -0.0 0.0 0.0 6.68742e-14 4.99262e-12 -1.42397e-13 82.5093 27.2959 -49.1443 -27.3021 -27.4054 63.1233 -0.407179 -17.8242 -2.59024 -1.27201e-10 -5.57877e-10 1.18361e-09 -2.34778e-10 -9.67515e-10 2.04374e-09 -1.27198e-10 -5.57879e-10 1.18361e-09 7.73091 5.47488 0.417314 -1.272e-10 -5.57878e-10 1.1836e-09 2.90554 0.965183 0.102902 -1.27192e-10 -5.57877e-10 1.18361e-09 10.2786 0.731801 0.0259123 -1.27205e-10 -5.57876e-10 1.18362e-09 2.22167 -0.733487 -0.20892 6.67314e-14 4.99262e-12 -1.4264e-13 -71.8573 60.8696 4.92412 27.6897 -41.8579 -87.2945 0.0006849 0.0317908 -0.00445591 -1.44976e-09 -2.36965e-09 2.33116e-09 -2.50749e-09 -4.0997e-09 4.03298e-09 -1.44977e-09 -2.36966e-09 2.33116e-09 -7.73091 5.47488 -0.417314 -1.44976e-09 -2.36966e-09 2.33115e-09 -2.90554 0.965183 -0.102902 -1.44977e-09 -2.36966e-09 2.33115e-09 -10.2786 0.731801 -0.0259123 -1.44975e-09 -2.36966e-09 2.33114e-09 -2.22167 -0.733487 0.20892 -2.03217e-16 0.0 -3.88251e-19 -24.766 -33.1198 -15.5429 -0.483495 28.7393 -1.72389 -0.40038 -1.822 -3.58143 2.03217e-16 0.0 3.88251e-19 -7.3219 14.9258 -4.12575 2.3358 79.2977 -6.04114 6.57726 38.9543 -14.4859
107.49 82.3643 -5.60893 128.432 76.0989 126.916 -9.23111 15.6822 -6.4821 7.2682 -2.77808 -1.10945 1.55453 -8.75113 1.22987 -2.36426 5.34557 2.16842 -0.0 0.0 0.0 -0.0 0.0 0.0 2.71808e-14 1.76836e-12 -1.10325e-14 81.5006 27.1842 -46.6346 -27.3043 -27.4151 63.1469 -0.397698 -17.5891 -2.55422 -1.76958e-10 -2.1422e-10 3.47984e-10 -3.10595e-10 -3.70558e-10 6.00125e-10 -1.76957e-10 -2.14222e-10 3.47976e-10 7.73091 5.47488 0.417314 -1.76958e-10 -2.14222e-10 3.47978e-10 2.90554 0.965183 0.102902 -1.76951e-10 -2.14221e-10 3.47981e-10 10.2786 0.731801 0.0259123 -1.76964e-10 -2.14219e-10 3.47988e-10 2.22167 -0.733487 -0.20892 2.7083e-14 1.76836e-12 -1.12562e-14 -75.3016 60.515 7.84223 27.9128 -40.7613 -85.4231 0.000625458 -0.00116074 0.000173737 -1.26868e-09 -1.84802e-09 2.13988e-09 -2.19559e-09 -3.19755e-09 3.70122e-09 -1.26869e-09 -1.84802e-09 2.13989e-09 -7.73091 5.47488 -0.417314 -1.26868e-09 -1.84802e-09 2.13988e-09 -2.90554 0.965183 -0.102902 -1.26869e-09 -1.84803e-09 2.13988e-09 -10.2786 0.731801 -0.0259123 -1.26867e-09 -1.84803e-09 2.13987e-09 -2.22167 -0.733487 0.20892 -2.03217e-16 0.0 -3.88251e-19 -17.2697 -36.785 -12.7425 -0.742496 34.46 -2.00616 -0.305508 -2.00991 -3.83624 2.03217e-16 0.0 3.88251e-19 -2.3724 13.9535 -1.57661 1.02072 81.7953 -10.9741 39.1382 52.9397 -52.9055
